name rise30.6535peak61.5555fall82.9339.mot
datacolumns 19
datarows 27
range 4.54997500000000 4.59331300000000
endheader
time	ground_force1_vx	ground_force1_vy	ground_force1_vz	ground_force1_px	ground_force1_py	ground_force1_pz	ground_force2_vx	ground_force2_vy	ground_force2_vz	ground_force2_px	ground_force2_py	ground_force2_pz	ground_torque1_x	ground_torque1_y	ground_torque1_z	ground_torque2_x	ground_torque2_y	ground_torque2_z	
4.54997500000000	68.78667799999999	800.81891199999995	57.89457600000000	0.32843600000000	0.00000000000000	0.12196500000000	0.00000000000000	0.00000000000000	0.00000000000000	0.00000000000000	0.00000000000000	0.00000000000000	0.00000000000000	20.97700400000000	0.00000000000000	0.00000000000000	0.00000000000000	0.00000000000000	
4.55164200000000	68.03433500000000	802.11605399999996	57.93842100000000	0.32758200000000	0.00000000000000	0.12196800000000	0.00000000000000	0.00000000000000	0.00000000000000	0.00000000000000	0.00000000000000	0.00000000000000	0.00000000000000	21.03492900000000	0.00000000000000	0.00000000000000	0.00000000000000	0.00000000000000	
4.55331400000000	67.27802500000000	803.24808900000005	57.98396900000000	0.32673700000000	0.00000000000000	0.12197200000000	0.00000000000000	0.00000000000000	0.00000000000000	0.00000000000000	0.00000000000000	0.00000000000000	0.00000000000000	21.09591000000000	0.00000000000000	0.00000000000000	0.00000000000000	0.00000000000000	
4.55497900000000	66.51817000000000	804.21643099999994	58.03102700000000	0.32590000000000	0.00000000000000	0.12197700000000	0.00000000000000	0.00000000000000	0.00000000000000	0.00000000000000	0.00000000000000	0.00000000000000	0.00000000000000	21.15974900000000	0.00000000000000	0.00000000000000	0.00000000000000	0.00000000000000	
4.55664500000000	65.75515300000001	805.02273900000000	58.07932700000000	0.32506800000000	0.00000000000000	0.12198400000000	0.00000000000000	0.00000000000000	0.00000000000000	0.00000000000000	0.00000000000000	0.00000000000000	0.00000000000000	21.22619800000000	0.00000000000000	0.00000000000000	0.00000000000000	0.00000000000000	
4.55831500000000	64.98931800000000	805.66890999999998	58.12853300000000	0.32424100000000	0.00000000000000	0.12199200000000	0.00000000000000	0.00000000000000	0.00000000000000	0.00000000000000	0.00000000000000	0.00000000000000	0.00000000000000	21.29496900000000	0.00000000000000	0.00000000000000	0.00000000000000	0.00000000000000	
4.55998000000000	64.22097900000000	806.15708199999995	58.17824500000000	0.32341500000000	0.00000000000000	0.12200100000000	0.00000000000000	0.00000000000000	0.00000000000000	0.00000000000000	0.00000000000000	0.00000000000000	0.00000000000000	21.36573400000000	0.00000000000000	0.00000000000000	0.00000000000000	0.00000000000000	
4.56164300000000	63.45042000000000	806.48963000000003	58.22800100000000	0.32259000000000	0.00000000000000	0.12201100000000	0.00000000000000	0.00000000000000	0.00000000000000	0.00000000000000	0.00000000000000	0.00000000000000	0.00000000000000	21.43812900000000	0.00000000000000	0.00000000000000	0.00000000000000	0.00000000000000	
4.56331200000000	62.67789900000000	806.66916700000002	58.27729200000000	0.32176400000000	0.00000000000000	0.12202300000000	0.00000000000000	0.00000000000000	0.00000000000000	0.00000000000000	0.00000000000000	0.00000000000000	0.00000000000000	21.51175700000000	0.00000000000000	0.00000000000000	0.00000000000000	0.00000000000000	
4.56498100000000	61.90365200000000	806.69853400000000	58.32555900000000	0.32093500000000	0.00000000000000	0.12203500000000	0.00000000000000	0.00000000000000	0.00000000000000	0.00000000000000	0.00000000000000	0.00000000000000	0.00000000000000	21.58619500000000	0.00000000000000	0.00000000000000	0.00000000000000	0.00000000000000	
4.56665000000000	61.12789800000000	806.58080299999995	58.37220400000000	0.32010000000000	0.00000000000000	0.12204900000000	0.00000000000000	0.00000000000000	0.00000000000000	0.00000000000000	0.00000000000000	0.00000000000000	0.00000000000000	21.66099400000000	0.00000000000000	0.00000000000000	0.00000000000000	0.00000000000000	
4.56830900000000	60.35084000000000	806.31926499999997	58.41659700000000	0.31926000000000	0.00000000000000	0.12206400000000	0.00000000000000	0.00000000000000	0.00000000000000	0.00000000000000	0.00000000000000	0.00000000000000	0.00000000000000	21.73568400000000	0.00000000000000	0.00000000000000	0.00000000000000	0.00000000000000	
4.56997900000000	59.57267000000000	805.91742499999998	58.45807800000000	0.31841000000000	0.00000000000000	0.12208000000000	0.00000000000000	0.00000000000000	0.00000000000000	0.00000000000000	0.00000000000000	0.00000000000000	0.00000000000000	21.80978000000000	0.00000000000000	0.00000000000000	0.00000000000000	0.00000000000000	
4.57164800000000	58.79357300000000	805.37899600000003	58.49596900000000	0.31755100000000	0.00000000000000	0.12209700000000	0.00000000000000	0.00000000000000	0.00000000000000	0.00000000000000	0.00000000000000	0.00000000000000	0.00000000000000	21.88278300000000	0.00000000000000	0.00000000000000	0.00000000000000	0.00000000000000	
4.57330900000000	58.01372800000000	804.70789100000002	58.52957900000000	0.31667900000000	0.00000000000000	0.12211400000000	0.00000000000000	0.00000000000000	0.00000000000000	0.00000000000000	0.00000000000000	0.00000000000000	0.00000000000000	21.95418800000000	0.00000000000000	0.00000000000000	0.00000000000000	0.00000000000000	
4.57498000000000	57.23331300000000	803.90821000000005	58.55820600000000	0.31579500000000	0.00000000000000	0.12213300000000	0.00000000000000	0.00000000000000	0.00000000000000	0.00000000000000	0.00000000000000	0.00000000000000	0.00000000000000	22.02348200000000	0.00000000000000	0.00000000000000	0.00000000000000	0.00000000000000	
4.57665000000000	56.45250900000000	802.98423400000001	58.58114900000000	0.31489500000000	0.00000000000000	0.12215200000000	0.00000000000000	0.00000000000000	0.00000000000000	0.00000000000000	0.00000000000000	0.00000000000000	0.00000000000000	22.09015400000000	0.00000000000000	0.00000000000000	0.00000000000000	0.00000000000000	
4.57831500000000	55.67149700000000	801.94041400000003	58.59771200000000	0.31397900000000	0.00000000000000	0.12217300000000	0.00000000000000	0.00000000000000	0.00000000000000	0.00000000000000	0.00000000000000	0.00000000000000	0.00000000000000	22.15369800000000	0.00000000000000	0.00000000000000	0.00000000000000	0.00000000000000	
4.57997500000000	54.89047000000000	800.78135699999996	58.60720900000000	0.31304400000000	0.00000000000000	0.12219300000000	0.00000000000000	0.00000000000000	0.00000000000000	0.00000000000000	0.00000000000000	0.00000000000000	0.00000000000000	22.21361200000000	0.00000000000000	0.00000000000000	0.00000000000000	0.00000000000000	
4.58164800000000	54.10962700000000	799.51181499999996	58.60897100000000	0.31209100000000	0.00000000000000	0.12221500000000	0.00000000000000	0.00000000000000	0.00000000000000	0.00000000000000	0.00000000000000	0.00000000000000	0.00000000000000	22.26940800000000	0.00000000000000	0.00000000000000	0.00000000000000	0.00000000000000	
4.58331600000000	53.32917800000000	798.13667499999997	58.60235000000000	0.31111700000000	0.00000000000000	0.12223700000000	0.00000000000000	0.00000000000000	0.00000000000000	0.00000000000000	0.00000000000000	0.00000000000000	0.00000000000000	22.32061000000000	0.00000000000000	0.00000000000000	0.00000000000000	0.00000000000000	
4.58497500000000	52.54934900000000	796.66094499999997	58.58672600000000	0.31012200000000	0.00000000000000	0.12225900000000	0.00000000000000	0.00000000000000	0.00000000000000	0.00000000000000	0.00000000000000	0.00000000000000	0.00000000000000	22.36676300000000	0.00000000000000	0.00000000000000	0.00000000000000	0.00000000000000	
4.58664400000000	51.77037800000000	795.08973700000001	58.56151000000000	0.30910400000000	0.00000000000000	0.12228200000000	0.00000000000000	0.00000000000000	0.00000000000000	0.00000000000000	0.00000000000000	0.00000000000000	0.00000000000000	22.40743100000000	0.00000000000000	0.00000000000000	0.00000000000000	0.00000000000000	
4.58831600000000	50.99252000000000	793.42825900000003	58.52615100000000	0.30806200000000	0.00000000000000	0.12230400000000	0.00000000000000	0.00000000000000	0.00000000000000	0.00000000000000	0.00000000000000	0.00000000000000	0.00000000000000	22.44220400000000	0.00000000000000	0.00000000000000	0.00000000000000	0.00000000000000	
4.58997600000000	50.21604700000000	791.68179799999996	58.48013500000000	0.30699700000000	0.00000000000000	0.12232800000000	0.00000000000000	0.00000000000000	0.00000000000000	0.00000000000000	0.00000000000000	0.00000000000000	0.00000000000000	22.47069900000000	0.00000000000000	0.00000000000000	0.00000000000000	0.00000000000000	
4.59164700000000	49.44125200000000	789.85570800000005	58.42299500000000	0.30590600000000	0.00000000000000	0.12235100000000	0.00000000000000	0.00000000000000	0.00000000000000	0.00000000000000	0.00000000000000	0.00000000000000	0.00000000000000	22.49256000000000	0.00000000000000	0.00000000000000	0.00000000000000	0.00000000000000	
4.59331300000000	48.66844200000000	787.95538999999997	58.35430900000000	0.30479100000000	0.00000000000000	0.12237400000000	0.00000000000000	0.00000000000000	0.00000000000000	0.00000000000000	0.00000000000000	0.00000000000000	0.00000000000000	22.50746800000000	0.00000000000000	0.00000000000000	0.00000000000000	0.00000000000000	
